Coordinates
version=1
nRows=29
nColumns=24
inDegrees=yes

Units are S.I. units (second, meters, Newtons, ...)
Angles are in degrees.

endheader
time	pelvis_tilt	pelvis_list	pelvis_rotation	pelvis_tx	pelvis_ty	pelvis_tz	hip_flexion_r	hip_adduction_r	hip_rotation_r	knee_angle_r	ankle_angle_r	subtalar_angle_r	mtp_angle_r	hip_flexion_l	hip_adduction_l	hip_rotation_l	knee_angle_l	ankle_angle_l	subtalar_angle_l	mtp_angle_l	lumbar_extension	lumbar_bending	lumbar_rotation
      0.96166667	     -3.14753243	     -0.71061871	      1.82357846	     -0.36875407	      1.00460552	      0.36619160	     13.56470463	      3.16022011	      0.07545333	    -20.29672096	     10.46276098	    -12.36620662	      0.57496776	     18.37613946	     -1.89778583	     -0.18547525	    -67.39576234	     -0.80562501	    -11.21907763	      2.52869936	     -9.73002316	      9.23680919	     -1.10617967
      0.96583333	     -3.13544035	     -0.58644325	      1.70289905	     -0.36424562	      1.00547710	      0.36670871	     13.05186792	      3.06621509	      0.09750687	    -19.84164360	     10.50529068	    -12.20318131	      0.58571285	     18.84837156	     -1.80308553	     -0.32661008	    -66.93216912	     -0.15934436	    -10.92647972	      2.47623291	     -9.79780891	      9.04519726	     -0.87933677
      0.97000000	     -3.11000799	     -0.46000918	      1.58453100	     -0.35974976	      1.00633926	      0.36720204	     12.52584127	      2.96506156	      0.11389129	    -19.38483166	     10.53044594	    -12.03112361	      0.60014653	     19.29594000	     -1.70361951	     -0.45752296	    -66.42357594	      0.46423243	    -10.62609570	      2.42303358	     -9.88834660	      8.84985315	     -0.66731218
      0.97416667	     -3.10138036	     -0.33782526	      1.46559807	     -0.35526119	      1.00711901	      0.36768466	     12.02527096	      2.86536043	      0.12383469	    -18.94130007	     10.56636114	    -11.84879567	      0.61939163	     19.75500569	     -1.60865224	     -0.58356656	    -65.88236949	      1.05733445	    -10.31603411	      2.36848180	     -9.95844808	      8.66351149	     -0.45832432
      0.97833333	     -3.08119482	     -0.21146111	      1.34998476	     -0.35077284	      1.00788646	      0.36813328	     11.51309678	      2.75588825	      0.12544623	    -18.49808678	     10.59634289	    -11.66066969	      0.64022824	     20.18895953	     -1.50453394	     -0.69797476	    -65.29446362	      1.61115622	    -10.00372971	      2.32302788	    -10.04303603	      8.48317827	     -0.27639426
      0.98250000	     -3.05390523	     -0.11065004	      1.23662860	     -0.34627462	      1.00861096	      0.36859063	     10.98939533	      2.67302525	      0.11878029	    -18.04391427	     10.62772716	    -11.47564641	      0.66820048	     20.60891953	     -1.43667670	     -0.80981173	    -64.67792059	      2.14383420	     -9.68089100	      2.27164616	    -10.12499177	      8.31516528	     -0.07898911
      0.98666667	     -3.02977962	      0.00618437	      1.12555353	     -0.34178866	      1.00929237	      0.36901026	     10.47812202	      2.56712431	      0.10048506	    -17.60684177	     10.65978184	    -11.27938137	      0.69750407	     21.01986267	     -1.34366398	     -0.91111774	    -64.01645801	      2.63119641	     -9.35902823	      2.22923149	    -10.20566792	      8.14217404	      0.09176995
      0.99083333	     -3.01897729	      0.11575374	      1.01276156	     -0.33730285	      1.00989209	      0.36941888	      9.98718675	      2.46662589	      0.08144148	    -17.18293342	     10.70892459	    -11.06989066	      0.73238711	     21.43686043	     -1.25839986	     -1.00693866	    -63.32518119	      3.08251788	     -9.04793264	      2.18719536	    -10.26939998	      7.97645789	      0.26725536
      0.99500000	     -3.01383637	      0.21492302	      0.90277504	     -0.33281214	      1.01046385	      0.36979341	      9.50147076	      2.37288325	      0.05469233	    -16.75198333	     10.70021642	    -10.87142371	      0.75855387	     21.84719258	     -1.17703610	     -1.08397107	    -62.59173378	      3.48227886	     -8.76614925	      2.16305524	    -10.31817522	      7.84333027	      0.40311006
      0.99916667	     -2.98597642	      0.30402375	      0.79499077	     -0.32832300	      1.01098513	      0.37018104	      8.99216064	      2.29138831	      0.02811895	    -16.32732414	     10.78924432	    -10.65761866	      0.80479636	     22.22824335	     -1.11569892	     -1.16336328	    -61.83902555	      3.87265428	     -8.44955072	      2.12346331	    -10.40513584	      7.69203852	      0.60353934
      1.00333333	     -2.94752083	      0.39283611	      0.68932125	     -0.32382033	      1.01151309	      0.37053679	      8.46833957	      2.20550780	     -0.00515206	    -15.89405454	     10.82958774	    -10.44800511	      0.85214511	     22.58043464	     -1.04701963	     -1.22711440	    -61.03846828	      4.20232177	     -8.18040634	      2.08778948	    -10.49434305	      7.55217823	      0.76428151
      1.00750000	     -2.92487426	      0.47736802	      0.58204141	     -0.31932368	      1.01195895	      0.37087878	      7.96808857	      2.12222885	     -0.03979894	    -15.47353074	     10.87679803	    -10.23616935	      0.90005606	     22.94064224	     -0.98215754	     -1.28657288	    -60.20876440	      4.49512171	     -7.92674250	      2.05800587	    -10.56530234	      7.42257206	      0.91939111
      1.01166667	     -2.89816919	      0.56956980	      0.47411601	     -0.31481755	      1.01236971	      0.37119556	      7.46770001	      2.02681113	     -0.07882926	    -15.06486375	     10.93788459	    -10.01025874	      0.95412312	     23.28019259	     -0.90337975	     -1.33409329	    -59.33932432	      4.74769486	     -7.69642619	      2.02926280	    -10.63998634	      7.28464726	      1.07590029
      1.01583333	     -2.89499229	      0.65376647	      0.36464571	     -0.31031444	      1.01270422	      0.37149683	      6.99657882	      1.93840776	     -0.11380541	    -14.66055067	     10.95053708	     -9.79363045	      0.98977886	     23.63485941	     -0.83164698	     -1.37368014	    -58.43896655	      4.94802630	     -7.50167816	      2.01504779	    -10.68018720	      7.17091792	      1.18879947
      1.02000000	     -2.83164329	      0.72393339	      0.26059872	     -0.30579449	      1.01307605	      0.37179269	      6.45185717	      1.86438910	     -0.15534137	    -14.24445121	     11.06069906	     -9.55653207	      1.05090555	     23.91193101	     -0.77523935	     -1.40103614	    -57.51095032	      5.14437096	     -7.30925261	      1.99276511	    -10.80288656	      7.05109703	      1.37310442
      1.02416667	     -2.82443349	      0.79917001	      0.15068884	     -0.30128561	      1.01332430	      0.37206677	      5.97953614	      1.78193587	     -0.18783615	    -13.84762946	     11.08701619	     -9.34014830	      1.09235848	     24.23698906	     -0.70924299	     -1.42193131	    -56.54812056	      5.28293008	     -7.15095333	      1.98023622	    -10.84537947	      6.94673741	      1.49294451
      1.02833333	     -2.78372711	      0.86890902	      0.04075097	     -0.29675728	      1.01358155	      0.37234025	      5.46539410	      1.70469714	     -0.21772074	    -13.44318891	     11.15458960	     -9.11004826	      1.13804062	     24.50969486	     -0.64948558	     -1.43315592	    -55.55200886	      5.39732057	     -7.01887496	      1.96868228	    -10.93230978	      6.83868379	      1.63958290
      1.03250000	     -2.76296743	      0.93235844	     -0.06828182	     -0.29223455	      1.01375650	      0.37258753	      4.97941345	      1.63189636	     -0.25022470	    -13.05350447	     11.23358225	     -8.88014409	      1.18574931	     24.79389142	     -0.59316493	     -1.43454387	    -54.53098294	      5.48024339	     -6.91206954	      1.95806021	    -10.99904909	      6.73854928	      1.79073225
      1.03666667	     -2.69723821	      0.99298957	     -0.17300299	     -0.28770515	      1.01394778	      0.37282073	      4.44295152	      1.55933582	     -0.28996981	    -12.66276833	     11.36741796	     -8.63540276	      1.25700051	     25.01430487	     -0.53593612	     -1.42066276	    -53.47752314	      5.53787130	     -6.85544472	      1.94382344	    -11.12269596	      6.63434427	      1.97658406
      1.04083333	     -2.67941088	      1.06741874	     -0.28750987	     -0.28316901	      1.01404532	      0.37304864	      3.96790265	      1.47039851	     -0.31469760	    -12.28814580	     11.41555321	     -8.40765977	      1.30432589	     25.26678505	     -0.46569059	     -1.40822155	    -52.38129175	      5.55295179	     -6.78880748	      1.93468985	    -11.17453394	      6.52938379	      2.09465357
      1.04500000	     -2.63767299	      1.12492125	     -0.39814652	     -0.27863303	      1.01412564	      0.37326534	      3.46422975	      1.39882184	     -0.33862137	    -11.90917106	     11.51388207	     -8.17635448	      1.35694479	     25.48137307	     -0.41030469	     -1.37724755	    -51.26019012	      5.54505228	     -6.77053739	      1.92529785	    -11.26217311	      6.43675218	      2.24594817
      1.04916667	     -2.60676572	      1.17854230	     -0.50344790	     -0.27409428	      1.01412935	      0.37345321	      2.97889166	      1.32876768	     -0.37056590	    -11.54912282	     11.66975568	     -7.92840282	      1.43646213	     25.69660454	     -0.35301696	     -1.32947843	    -50.11617713	      5.50888320	     -6.81054180	      1.91299990	    -11.35058171	      6.34325158	      2.43239701
      1.05333333	     -2.56620104	      1.23116672	     -0.61352010	     -0.26955329	      1.01411139	      0.37364077	      2.48618624	      1.25855815	     -0.39489757	    -11.19172754	     11.78092284	     -7.69559283	      1.51223667	     25.88322003	     -0.29965143	     -1.27734743	    -48.93639796	      5.45027322	     -6.83627451	      1.90150223	    -11.43750804	      6.25629130	      2.58047191
      1.05750000	     -2.54723219	      1.28262029	     -0.72768139	     -0.26499698	      1.01404703	      0.37383033	      2.01702558	      1.19031117	     -0.40402213	    -10.83434802	     11.85263349	     -7.48977886	      1.56674014	     26.07247603	     -0.24942294	     -1.21883097	    -47.71645176	      5.35767445	     -6.86694356	      1.89102181	    -11.48758007	      6.17117412	      2.71217763
      1.06166667	     -2.51088847	      1.32978445	     -0.83440746	     -0.26045684	      1.01393754	      0.37399512	      1.53516526	      1.12417108	     -0.41853507	    -10.49014238	     12.00184687	     -7.27221598	      1.63938150	     26.23175399	     -0.19794116	     -1.14174283	    -46.47323153	      5.23756622	     -6.97518463	      1.87743103	    -11.58261249	      6.09196801	      2.88637158
      1.06583333	     -2.50754555	      1.37000844	     -0.94261658	     -0.25591399	      1.01372911	      0.37415489	      1.09767967	      1.06580775	     -0.42584187	    -10.16510057	     12.12648687	     -7.06666046	      1.70913136	     26.41312243	     -0.15578364	     -1.05456058	    -45.20509937	      5.09362590	     -7.07123143	      1.86293763	    -11.62787696	      6.01821124	      3.04152659
      1.07000000	     -2.50800355	      1.40724117	     -1.05722700	     -0.25135819	      1.01348700	      0.37432704	      0.66764029	      1.01098487	     -0.42404609	     -9.84384468	     12.20340346	     -6.88398510	      1.75468016	     26.57863627	     -0.12628942	     -0.97845443	    -43.90155575	      4.92992362	     -7.13967093	      1.84882460	    -11.65747465	      5.94884851	      3.16692216
      1.07416667	     -2.49582086	      1.42814397	     -1.16103666	     -0.24681569	      1.01321332	      0.37447357	      0.22203035	      0.97379240	     -0.40950649	     -9.52197411	     12.33631739	     -6.71006022	      1.80615385	     26.71780871	     -0.10354072	     -0.86386194	    -42.57344811	      4.72927124	     -7.29129973	      1.83065398	    -11.71887684	      5.89422591	      3.33048284
      1.07833333	     -2.47550503	      1.44759738	     -1.26991215	     -0.24225693	      1.01291437	      0.37461842	     -0.22822505	      0.93649513	     -0.39782018	     -9.20765437	     12.44930756	     -6.54929329	      1.85235204	     26.82828102	     -0.09077423	     -0.76581108	    -41.21158878	      4.51081372	     -7.42778720	      1.81088483	    -11.78152055	      5.84499208	      3.48331902
